<svg width="55" height="43" viewBox="0 0 55 43" fill="none" xmlns="http://www.w3.org/2000/svg">
<path d="M0.57373 36.1136C0.57373 37.9221 1.28498 39.6566 2.55102 40.9354C3.81706 42.2142 5.53418 42.9327 7.32463 42.9327H47.83C49.6205 42.9327 51.3376 42.2142 52.6036 40.9354C53.8697 39.6566 54.5809 37.9221 54.5809 36.1136V17.3611H0.57373V36.1136ZM8.53015 26.8591C8.53015 25.8902 8.91117 24.9611 9.58941 24.276C10.2676 23.5909 11.1875 23.206 12.1467 23.206H17.9332C18.8924 23.206 19.8122 23.5909 20.4905 24.276C21.1687 24.9611 21.5497 25.8902 21.5497 26.8591V29.2945C21.5497 30.2633 21.1687 31.1925 20.4905 31.8776C19.8122 32.5627 18.8924 32.9476 17.9332 32.9476H12.1467C11.1875 32.9476 10.2676 32.5627 9.58941 31.8776C8.91117 31.1925 8.53015 30.2633 8.53015 29.2945V26.8591ZM47.83 0.0698242H7.32463C5.53418 0.0698242 3.81706 0.788262 2.55102 2.06709C1.28498 3.34592 0.57373 5.08038 0.57373 6.88891V10.0549H54.5809V6.88891C54.5809 5.08038 53.8697 3.34592 52.6036 2.06709C51.3376 0.788262 49.6205 0.0698242 47.83 0.0698242Z" fill="white"/>
</svg>
