<svg width="85" height="84" viewBox="0 0 85 84" fill="none" xmlns="http://www.w3.org/2000/svg">
<path d="M33.8945 48.9165C34.2428 48.9165 42.3224 49.2647 47.1284 48.0807H47.1632C52.7006 46.7224 60.3971 42.8219 62.3822 30.0756C62.3822 30.0756 66.8051 14.1252 44.8647 14.1252H26.0238C24.3173 14.1252 22.8546 15.379 22.576 17.0506L14.566 67.7574C14.3919 68.8022 15.2277 69.7773 16.2725 69.7773H28.2178L31.1432 51.2498C31.3522 49.9264 32.5014 48.9165 33.8945 48.9165Z" fill="white"/>
<path d="M66.7469 29.0657C63.926 42.0558 55.0453 48.9165 40.9059 48.9165H35.7865L32.1994 71.6231C32.0601 72.5286 32.7567 73.3296 33.6621 73.3296H40.2791C41.4632 73.3296 42.5079 72.459 42.6821 71.2749C42.9607 69.8818 44.493 59.7126 44.8065 57.9713C44.9806 56.7872 46.0254 55.9166 47.2095 55.9166H48.7418C58.5628 55.9166 66.2593 51.9116 68.523 40.3841C69.4285 35.7175 68.9409 31.8866 66.7469 29.0657Z" fill="white"/>
</svg>
