<svg width="80" height="80" viewBox="0 0 80 80" fill="none" xmlns="http://www.w3.org/2000/svg">
<path d="M28.3333 20C32.4118 19.9934 36.4086 21.1435 39.86 23.3167L37.8766 24.9534C35.4111 26.9848 33.4261 29.5371 32.0643 32.4268C30.7024 35.3166 29.9974 38.4721 30 41.6667C29.9974 44.8613 30.7024 48.0168 32.0643 50.9066C33.4261 53.7963 35.4111 56.3486 37.8766 58.38L39.86 60.0134C37.0169 61.7994 33.7977 62.9003 30.4564 63.2292C27.115 63.558 23.7429 63.1059 20.6063 61.9083C17.4696 60.7108 14.6541 58.8007 12.3821 56.3288C10.11 53.8568 8.44354 50.8906 7.51414 47.6643C6.58474 44.438 6.41784 41.0399 7.02664 37.738C7.63543 34.4362 9.00324 31.321 11.0221 28.6383C13.041 25.9556 15.6558 23.7788 18.66 22.2797C21.6643 20.7806 24.9758 20.0002 28.3333 20ZM51.6666 20C54.9817 20.0014 58.2523 20.7635 61.2266 22.2276C64.2009 23.6917 66.7996 25.8188 68.8226 28.4451C70.8455 31.0715 72.2389 34.127 72.8953 37.3765C73.5517 40.626 73.4537 43.9828 72.6089 47.1884C71.764 50.3941 70.1948 53.3631 68.0221 55.867C65.8494 58.3709 63.1311 60.3428 60.0764 61.6309C57.0218 62.919 53.7123 63.489 50.4027 63.297C47.0932 63.105 43.8718 62.1561 40.9866 60.5234L40.14 60.0167L42.1233 58.38C44.5888 56.3486 46.5738 53.7963 47.9356 50.9066C49.2975 48.0168 50.0025 44.8613 50 41.6667C50 35.2434 47.2 29.47 42.7666 25.5067L42.1233 24.9534L40.14 23.3167C43.5913 21.1435 47.5881 19.9934 51.6666 20ZM40 32.2367C42.162 34.9034 43.3391 38.2337 43.3333 41.6667C43.3391 45.0997 42.162 48.43 40 51.0967C37.8379 48.43 36.6608 45.0997 36.6666 41.6667C36.6608 38.2337 37.8379 34.9034 40 32.2367Z" fill="white"/>
</svg>
