<svg width="80" height="80" viewBox="0 0 80 80" fill="none" xmlns="http://www.w3.org/2000/svg">
<path d="M3.3335 13.3333H76.6668V19.9999H3.3335V13.3333ZM3.3335 59.9999H76.6668V66.6666H3.3335V59.9999ZM65.4068 49.7132L64.8268 46.8133H58.3302L57.2968 49.6899L52.0902 49.7033C55.4391 41.681 57.9235 35.7366 59.5435 31.8699C59.9635 30.8588 60.7246 30.3544 61.8268 30.3566C62.6735 30.3633 64.0568 30.3633 65.9768 30.3566L70.0002 49.7066L65.4068 49.7132ZM59.7935 42.8399H63.9802L62.4135 35.5733L59.7935 42.8399ZM26.2402 30.3533L31.4735 30.3599L23.3835 49.7132L18.0835 49.7099C16.2924 42.8077 14.9768 37.691 14.1368 34.3599C13.8802 33.3366 13.3702 32.6233 12.3835 32.2866C11.5079 31.9844 10.0468 31.5188 8.00016 30.8899V30.3566H16.3635C17.8102 30.3566 18.6535 31.0566 18.9268 32.4899L20.9935 43.4533L26.2402 30.3533ZM38.6635 30.3599L34.5302 49.7099L29.5468 49.7033L33.6802 30.3533L38.6635 30.3599ZM48.7702 29.9999C50.2568 29.9999 52.1368 30.4599 53.2168 30.8899L52.3435 34.9032C51.3668 34.5099 49.7602 33.9799 48.4102 34.0033C46.4435 34.0333 45.2302 34.8566 45.2302 35.6466C45.2302 36.9266 47.3368 37.5733 49.5102 38.9766C51.9868 40.5766 52.3102 42.0099 52.2835 43.5699C52.2468 46.8066 49.5102 49.9999 43.7335 49.9999C41.0968 49.9599 40.1468 49.7399 38.0002 48.9799L38.9068 44.7933C41.0935 45.7066 42.0235 45.9966 43.8902 45.9966C45.6068 45.9966 47.0768 45.3066 47.0902 44.1033C47.0968 43.2466 46.5735 42.8233 44.6502 41.7633C42.7268 40.7033 40.0302 39.2433 40.0668 36.2966C40.1102 32.5299 43.6935 29.9999 48.7702 29.9999Z" fill="white"/>
</svg>
